<svg xmlns="http://www.w3.org/2000/svg" version="1.1" xmlns:xlink="http://www.w3.org/1999/xlink" width="1500" height="154" viewBox="0 0 1500 154"><svg xml:space="preserve" width="1500" height="154" data-version="2" data-id="lg_fcUO6v2Zz14zjRV0gJ" viewBox="0 0 507 154" x="0" y="0"><rect width="100%" height="100%" fill="transparent"></rect><path fill="#02324c" d="M190.265 16.48q6.77 0 10.42 3.41 3.65 3.42 3.65 9.79 0 4.89-2.14 8.54-2.14 3.65-6.13 5.66-3.99 2.01-9.35 2.01h-4.28v.13l.4 13.67h-9.11l.46-12.86-.46-30.29zm-1.54 22.78q6.17-1.74 6.17-8.78 0-3.62-1.85-5.39-1.84-1.78-5.66-1.91l-4.55.27-.27 15.54z"></path><rect width="30.61" height="43.21" x="-15.3" y="-21.61" fill="none" rx="0" ry="0" transform="translate(189.53 38.59)"></rect><path fill="#02324c" d="M226.385 28.47q.6 0 1.67.13v8.25l-.94.33q-1.13-.47-2.47-.47-3.89 0-7.04 5.03v4.22l.47 13.73h-8.91l.53-12.86-.4-17.69 8.44-.74-.06 6.1h.53q3.29-6.03 8.18-6.03"></path><rect width="18.89" height="31.29" x="-9.45" y="-15.64" fill="none" rx="0" ry="0" transform="translate(219.11 44.55)"></rect><path fill="#02324c" d="M245.415 27.93q6.83 0 10.45 4.02 3.62 4.02 3.62 11.6 0 8.17-3.89 12.49t-11.19 4.32q-6.83 0-10.45-4.02-3.62-4.02-3.62-11.59 0-8.17 3.89-12.49 3.88-4.33 11.19-4.33m-.61 6.03q-3.21 0-4.65 2.15-1.44 2.14-1.44 6.9 0 6.16 1.47 8.78 1.47 2.61 4.82 2.61 3.22 0 4.66-2.11t1.44-6.94q0-6.09-1.51-8.74-1.5-2.65-4.79-2.65"></path><rect width="29.15" height="32.43" x="-14.57" y="-16.21" fill="none" rx="0" ry="0" transform="translate(245.41 44.65)"></rect><path fill="#02324c" d="M278.375 27.93q2.21 0 4.39.44 2.18.44 3.85 1.24l-1.47 7.1-.74.34q-3.42-1.88-6.1-1.88-3.08 0-4.75 2.21-1.68 2.21-1.68 6.3 0 4.69 1.81 7.17 1.81 2.48 5.16 2.48 3.01 0 6.7-1.68l.67.54-.87 6.9q-4.02 1.27-8.24 1.27-6.44 0-10.05-4.19-3.62-4.18-3.62-11.69 0-7.77 3.95-12.16 3.95-4.39 10.99-4.39"></path><rect width="23.18" height="32.43" x="-11.59" y="-16.21" fill="none" rx="0" ry="0" transform="translate(275.52 44.65)"></rect><path fill="#02324c" d="m321.125 53.86-.81 4.69q-2.48 1.61-5.09 1.68-1.94-.34-3.22-1.54-1.27-1.21-1.94-3.49h-.6q-3.82 3.76-7.91 4.89-5.09 0-7.74-2.31-2.64-2.31-2.58-6.66l.14-7.91-.34-14.07 8.65-.74-.21 19.77q-.06 2.34.94 3.55 1.01 1.21 3.02 1.21 2.95 0 5.83-2.62V29.14l8.51-.74-.61 23.19q0 1.07.37 1.54t1.17.47q.74 0 1.81-.27Z"></path><rect width="30.09" height="31.83" x="-15.04" y="-15.91" fill="none" rx="0" ry="0" transform="translate(306.58 44.81)"></rect><path fill="#02324c" d="M343.165 28.47q.6 0 1.67.13v8.25l-.93.33q-1.14-.47-2.48-.47-3.89 0-7.04 5.03v4.22l.47 13.73h-8.91l.54-12.86-.41-17.69 8.45-.74-.07 6.1h.53q3.29-6.03 8.18-6.03"></path><rect width="18.89" height="31.29" x="-9.45" y="-15.64" fill="none" rx="0" ry="0" transform="translate(335.89 44.55)"></rect><path fill="#02324c" d="m373.385 45.22-18.09.13q.6 8.38 8.5 8.38 4.16 0 9.25-2.35l.74.47-1.34 6.64q-5.09 1.87-9.58 1.87-7.37 0-11.56-4.29-4.19-4.28-4.19-11.85 0-7.51 4.09-11.9 4.09-4.39 11.05-4.39 5.97 0 9.22 3.25 3.25 3.25 3.25 9.08 0 1.54-.34 3.89Zm-6.44-5.96q0-2.68-1.2-4.06-1.21-1.37-3.55-1.37-2.62 0-4.36 1.71-1.74 1.71-2.34 4.92l11.32-.26Z"></path><rect width="27.61" height="32.43" x="-13.8" y="-16.21" fill="none" rx="0" ry="0" transform="translate(361.42 44.65)"></rect><path fill="#02324c" d="m428.115 46.02.27 13.67h-9.04l.4-12.86-.07-5.03-9.71-.06-8.78.13-.07 4.15.34 13.67h-9.05l.47-12.86-.47-30.29h9.18l-.27 17.83 9.25.13 9.05-.13-.27-17.83h9.24Z"></path><rect width="36.18" height="43.15" x="-18.09" y="-21.57" fill="none" rx="0" ry="0" transform="translate(411 38.62)"></rect><path fill="#02324c" d="m466.715 53.86-.81 4.69q-2.48 1.61-5.09 1.68-1.94-.34-3.22-1.54-1.27-1.21-1.94-3.49h-.6q-3.82 3.76-7.91 4.89-5.09 0-7.74-2.31-2.64-2.31-2.58-6.66l.14-7.91-.34-14.07 8.65-.74-.2 19.77q-.07 2.34.93 3.55 1.01 1.21 3.02 1.21 2.95 0 5.83-2.62V29.14l8.51-.74-.61 23.19q0 1.07.37 1.54t1.17.47q.74 0 1.81-.27Z"></path><rect width="30.09" height="31.83" x="-15.04" y="-15.91" fill="none" rx="0" ry="0" transform="translate(452.17 44.81)"></rect><path fill="#02324c" d="M488.755 28.14q5.9 0 9.01 3.98 3.12 3.99 3.12 11.09 0 8.24-4.09 12.7-4.09 4.45-11.32 4.45-3.42 0-7.51-1.54l-4.69 1.68-1.07-.87.47-12.73-.4-33.57 8.84-.67-.27 20.3h.41q1.87-1.81 3.61-2.92 1.75-1.1 3.89-1.9m-3.28 26.39q3.35 0 5.22-2.41 1.88-2.41 1.88-7.37 0-4.62-1.51-7.03-1.51-2.42-4.52-2.42-2.75 0-5.76 2.82l-.14 7.64.14 7.57q2.48 1.2 4.69 1.2"></path><rect width="28.68" height="47.84" x="-14.34" y="-23.92" fill="none" rx="0" ry="0" transform="translate(487.05 37.08)"></rect><path fill="#780000" d="M128.278 1.746H10.403a5.306 5.306 0 0 0-5.29 5.29v138.349a5.306 5.306 0 0 0 5.29 5.29h117.875a5.307 5.307 0 0 0 5.29-5.29V7.035a5.309 5.309 0 0 0-5.29-5.29m-4.439 139.396H14.842V11.473H123.84z"></path><path fill="#780000" d="M102.274 101.704a2.317 2.317 0 0 1-2.318 2.318h-7.795a2.318 2.318 0 0 1 0-4.637h7.797a2.32 2.32 0 0 1 2.316 2.32m11.468-35.008a4.408 4.408 0 0 1-4.408 4.407H29.295a4.408 4.408 0 0 1 0-8.815h80.04a4.408 4.408 0 0 1 4.407 4.408m0-19.396a4.408 4.408 0 0 1-4.408 4.407H29.295a4.41 4.41 0 0 1 0-8.816h80.04a4.41 4.41 0 0 1 4.407 4.409m-54.49-19.4a4.41 4.41 0 0 1-4.408 4.41H29.295a4.408 4.408 0 0 1 0-8.817h25.55a4.406 4.406 0 0 1 4.406 4.408"></path><path fill="#780000" d="M115.182 111.794c-4.256.521-7.122 3.77-9.835 6.442-.89.917-1.742 1.8-2.518 2.54a41.957 41.957 0 0 0 1.594-3.203c.56-1.356.882-2.51.888-3.685.019-1.07-.362-2.314-1.284-3.127-.91-.817-1.995-1.024-2.872-1.024-2.57.085-4.857 1.383-6.757 3.029-1.883 1.717-3.799 3.73-5.47 5.252-.828.757-1.605 1.386-2.191 1.76-.294.19-.54.314-.69.374a1.15 1.15 0 0 1-.09.033 36.69 36.69 0 0 0-.562-.131c.77-1.186 2.22-3.21 4.395-6.05a95.664 95.664 0 0 0 1.9-2.338 47.49 47.49 0 0 0 1.133-1.504c.04-.06.076-.11.129-.199.028-.044.055-.096.107-.196a1.502 1.502 0 0 0 .218-.726l.014-.13a.101.101 0 0 1 .013-.023c.013-.172.006-.182.01-.187 0-.22-.032-.44-.094-.65a2.34 2.34 0 0 0-.915-1.29 2.22 2.22 0 0 0-.323-.192l-.055-.029.003.003-.028-.012.025.01a.86.86 0 0 0-.286-.107c.033.01.066.026.1.037-.045-.016-.09-.033-.135-.045a1.529 1.529 0 0 0-.67-.098l-.086.002a1.518 1.518 0 0 0-.663.119.933.933 0 0 1-.067.025l.067-.027a1.366 1.366 0 0 0-.415.185 4.137 4.137 0 0 0-.175.106l-.056.041a3.133 3.133 0 0 0-.128.1c-.238.19-.203.199-.294.278-.349.392-.985 1.192-2.317 2.945l-.62.814a92.941 92.941 0 0 1-3.977 4.468c-1.684 1.764-3.483 3.468-5.069 4.66-1.55 1.23-3.013 1.782-3.215 1.708h-.02a2.925 2.925 0 0 1-.516-.127c.034-.34.29-1.053.738-1.996 2.324-2.824 4.62-6.45 6.456-9.61a97.107 97.107 0 0 0 2.519-4.603c.311-.616.563-1.138.754-1.555a11.952 11.952 0 0 0 .245-.588c.058-.255.163-.244.212-1.055-.01-.27-.015-.645-.323-1.208-.254-.57-1.23-1.25-2.064-1.195-.886.04-1.164.316-1.374.433-.614.48-.56.56-.742.76-.359.503-.806 1.248-1.547 2.55-2.207 3.858-4.506 7.295-6.307 10.242-.692 1.174-1.33 2.235-1.86 3.253a18.758 18.758 0 0 1-1.469 1.553 6.713 6.713 0 0 1-1.152.888 1.668 1.668 0 0 1-.279.131l-.004.002-.043-.002a2.752 2.752 0 0 1-.05-.575c-.02-.865.28-2.32.881-4.197a111.273 111.273 0 0 0 2.987-4.479A113.113 113.113 0 0 0 77.9 97.569a61.67 61.67 0 0 0 1.936-4.654c.45-1.333.748-2.076.794-3.216-.013-.272.003-.6-.251-1.189-.166-.577-1.25-1.503-2.236-1.429-1.614.179-1.679.726-2.04.96-.766.849-1.44 1.977-2.576 4.04-3.317 6.079-6.064 11.468-8.009 15.97a71.57 71.57 0 0 0-1.832 4.667c-.49.683-.988 1.358-1.497 2.024-4.786 6.303-10.493 11.626-15.904 13.384a2.372 2.372 0 0 0 1.492 4.502c5.592-1.906 10.616-6.092 15.005-11.107.17.427.406.84.724 1.233.923 1.146 2.428 1.649 3.734 1.617a6.21 6.21 0 0 0 1.927-.431c.202.387.466.749.795 1.053.699.66 1.513 1.033 2.376 1.264h-7.552a2.318 2.318 0 0 0 0 4.637h46.637a2.318 2.318 0 1 0 0-4.637h-7.785c.392-.27.767-.56 1.137-.855 2.033-1.704 3.976-3.971 5.911-5.79 1.913-1.858 3.812-3.06 4.921-3.1a2.37 2.37 0 1 0-.425-4.718M89.18 107.11a2.453 2.453 0 0 0-.295.413l-.055.079a1.537 1.537 0 0 1 .35-.492m-13.665 19.151c1.714-.446 3.192-1.469 4.77-2.642.18-.14.362-.284.542-.43.04.04.079.081.12.117 1.755 1.395 2.716 1.07 4.035 1.524.36.089.686.114.966.114 2.716-.182 4.233-1.788 6.175-3.42 1.854-1.69 3.764-3.702 5.471-5.251.741-.737 2.022-1.39 2.857-1.663a8.53 8.53 0 0 1-.396 1.13c-.545 1.292-1.397 2.775-2.156 4.163-.732 1.462-1.502 2.545-1.603 4.409-.027.537.153 1.31.612 1.949zM40.513 83.929l4.506-2.893 2.45 4.758 5.343-.253-.237 5.344 4.743 2.45-2.877 4.506 2.877 4.505-4.743 2.45.237 5.344-5.343-.237-2.45 4.743-4.506-2.878-4.506 2.878-2.45-4.743-5.343.237.253-5.343-4.759-2.45 2.893-4.506-2.893-4.506 4.759-2.45-.253-5.344 5.343.253 2.45-4.758z"></path><path fill="#02324c" d="M267.165 84.23q2.23 0 4.37.96l-.65 2.2-.43.12q-1.62-1.36-3.6-1.36-1.18 0-2.08.46-.9.47-1.39 1.23-.5.76-.5 1.6 0 1.14.81 1.9.8.76 2.48 1.82 1.36.83 2.22 1.5.85.67 1.45 1.67.61 1.01.61 2.34 0 1.58-.89 2.92-.88 1.33-2.43 2.11-1.55.77-3.47.77-1.27 0-2.65-.37t-2.5-1.02l.59-2.39.31-.13q.9 1 2.11 1.49 1.21.5 2.39.5 1.82 0 3-1.01t1.18-2.43q0-1.21-.81-2.02-.8-.8-2.48-1.83-1.33-.8-2.17-1.45-.83-.65-1.42-1.65-.59-.99-.59-2.32 0-1.55.85-2.84.85-1.28 2.36-2.03 1.5-.74 3.33-.74"></path><rect width="13.02" height="20.24" x="-6.51" y="-10.12" fill="none" rx="0" ry="0" transform="translate(265.52 94.85)"></rect><path fill="#02324c" d="M279.535 89.81q1.7.28 2.56 1.42.85 1.15.85 3.29 0 2.85-.81 5.05-.8 2.2-2.34 3.49-1.53 1.29-3.64 1.47l-.28-.03q-1.77-.34-2.62-1.49-.85-1.14-.85-3.38 0-2.79.84-4.97.83-2.19 2.4-3.46 1.56-1.27 3.64-1.39Zm-.65 1.89q-2.11 0-3.23 2.14-1.11 2.14-1.11 5.76 0 1.62.43 2.34.44.73 1.46.73 2.08 0 3.19-2.17 1.12-2.17 1.12-5.83 0-1.58-.44-2.27-.43-.7-1.42-.7"></path><rect width="10.54" height="14.72" x="-5.27" y="-7.36" fill="none" rx="0" ry="0" transform="translate(278.18 97.67)"></rect><path fill="#02324c" d="m297.115 89.9-1.55 10.97-.13 3.29-2.35.22.96-6.95h-.22q-1.52 2.61-2.77 4.25-1.26 1.64-2.62 2.7h-.34q-1.09-.25-1.76-.93-.66-.68-.63-1.74l.03-.4 1.27-8 .25-3.25 2.29-.19-1.64 10.38-.06.66q-.03.46.15.69.19.24.5.24.9 0 2.54-2.27 1.64-2.26 3.63-6.45l.15-3Z"></path><rect width="11.42" height="14.51" x="-5.71" y="-7.25" fill="none" rx="0" ry="0" transform="translate(291.9 97.63)"></rect><path fill="#02324c" d="m309.385 89.99-.46 3.1-.19.1-.28-.03q-1.49.21-2.85 2.03-1.36 1.81-3.16 6.27l-.13 2.7-2.35.22 1.61-11.26.16-3 2.26-.22-.93 6.82h.25q1.11-2.26 2.4-3.92 1.29-1.66 2.93-2.87Z"></path><rect width="9.42" height="14.48" x="-4.71" y="-7.24" fill="none" rx="0" ry="0" transform="translate(305.18 97.64)"></rect><path fill="#02324c" d="m318.965 90.49.19.34-.62 1.83-.5.09q-.59-.62-1.07-.85-.48-.23-1.01-.23-1.86 0-2.94 1.95-1.09 1.95-1.09 5.33 0 1.92.44 2.75.43.82 1.36.82 1.65 0 3.23-2.79l.34.03.71.99q-.96 1.64-2 2.48-1.04.84-2.43 1.24h-.37q-1.8-.31-2.62-1.41-.83-1.1-.83-3.7 0-4.16 1.82-6.82 1.81-2.67 5.41-2.67Z"></path><rect width="9.4" height="14.6" x="-4.7" y="-7.3" fill="none" rx="0" ry="0" transform="translate(314.95 97.67)"></rect><path fill="#02324c" d="m328.425 99.94.74.97q-.99 1.51-2.17 2.38-1.18.87-2.67 1.18h-.37q-1.98-.25-2.9-1.46-.91-1.21-.91-3.59 0-2.73.88-4.9.89-2.17 2.42-3.41 1.54-1.24 3.52-1.3l.25.03q1.33.15 2.03.87.7.71.7 1.89 0 1.86-1.93 3.42-1.92 1.57-5.7 2.75 0 1.95.51 2.85.51.9 1.6.9.93 0 1.78-.62t1.84-1.99Zm-1.96-8.46q-1.58 0-2.68 1.54-1.1 1.53-1.38 4.1 2.67-.86 4.05-1.97 1.38-1.1 1.38-2.4 0-1.27-1.37-1.27"></path><rect width="9.8" height="14.66" x="-4.9" y="-7.33" fill="none" rx="0" ry="0" transform="translate(325.55 97.64)"></rect><path fill="#02324c" d="m340.265 98.08-.62 6.17h-2.36l.9-5.98 1.58-13.86h2.36Z"></path><rect width="4.84" height="19.84" x="-2.42" y="-9.92" fill="none" rx="0" ry="0" transform="translate(340.2 94.83)"></rect><path fill="#02324c" d="m347.545 100.81-.06.5q0 .46.22.74.22.28.62.28 1.11 0 2.7-2.48h.27l.66.84q-1.09 1.8-1.96 2.63-.87.84-1.95 1.15-1.24 0-1.94-.68t-.7-1.92l.07-.75 1.33-8 .15-1.27h-2.07l-.16-.15.16-1.4h2.29l.44-3.44 2.13-.99.19.19-.68 4.24h3.78l.19.25-.16 1.3h-4.06Z"></path><rect width="8.5" height="18.6" x="-4.25" y="-9.3" fill="none" rx="0" ry="0" transform="translate(349.48 95.67)"></rect><path fill="#02324c" d="M373.185 89.19q0 2.38-1.25 4.21-1.26 1.83-3.52 2.82 1.76 3.76 4 7.48l-.07.27q-1.11.44-2.2.56l-.25-.21q-2.01-3.88-3.47-7.51h-3.44l-.18 1.27-.62 6.17h-2.36l.9-5.98 1.61-13.86h.03l5.52-.06q2.51 0 3.91 1.26 1.39 1.25 1.39 3.58m-9.95 5.64 3.56.09q1.96-.59 2.97-1.95 1-1.36 1-3.41 0-3.1-3.47-3.29l-2.91.1Z"></path><rect width="13.36" height="20.18" x="-6.68" y="-10.09" fill="none" rx="0" ry="0" transform="translate(367 94.94)"></rect><path fill="#02324c" d="m378.115 100.87-.12 3.29-2.36.22 1.61-11.26.13-3 2.29-.22Zm1.02-17.05q.59 0 .95.35.35.34.35.96 0 .65-.37 1.05t-.99.4q-.62 0-.98-.37-.35-.37-.35-.99t.37-1.01q.37-.39 1.02-.39"></path><rect width="4.8" height="20.56" x="-2.4" y="-10.28" fill="none" rx="0" ry="0" transform="translate(378.54 94.6)"></rect><path fill="#02324c" d="m393.215 89.99-1.52 10.76-.25 2.33q-.31 2.26-1.33 3.92-1.03 1.66-2.56 2.52-1.54.87-3.3.87-1.99 0-3.29-1.13t-1.67-3.21l.09-.25 4.37-2.72.03-.28q-.65-.59-.96-1.48-.31-.88-.31-2.21 0-2.23.79-4.22.79-1.98 2.34-3.33 1.55-1.35 3.72-1.69h.16l1.92.68 1.46-.74Zm-4.28 1.74q-2.05 0-3.19 1.89-1.15 1.89-1.15 4.71 0 1.52.29 2.27.3.74.58.74.31 0 1.13-.96.82-.96 1.92-2.75 1.1-1.78 2.19-4.1l.06-.41.06-.71zm-4.19 16.89q1.77 0 3-1.27 1.22-1.27 1.56-3.65l.81-5.96h-.31q-2.2 3.88-4.59 5.77l-3.16 2.36q-.28.24-.28.52.03.84.83 1.54.81.69 2.14.69"></path><rect width="13.92" height="20.58" x="-6.96" y="-10.29" fill="none" rx="0" ry="0" transform="translate(386.75 100.6)"></rect><path fill="#02324c" d="M405.205 89.84q1.09.25 1.76.94.66.7.63 1.76l-.03.4-1.27 7.97-.19 3.25-2.38.22 1.7-10.6.03-.41q0-.96-.65-.96-.9 0-2.53 2.26-1.62 2.27-3.64 6.45l-.15 3.04-2.36.22 2.67-18.73.06-3 2.35-.22-2.01 14.45h.28q1.52-2.67 2.79-4.33 1.27-1.66 2.6-2.71z"></path><rect width="11.48" height="21.95" x="-5.74" y="-10.97" fill="none" rx="0" ry="0" transform="translate(402.37 93.9)"></rect><path fill="#02324c" d="m413.735 100.81-.06.5q0 .46.21.74.22.28.62.28 1.12 0 2.7-2.48h.28l.65.84q-1.08 1.8-1.95 2.63-.87.84-1.96 1.15-1.24 0-1.93-.68-.7-.68-.7-1.92l.06-.75 1.33-8 .16-1.27h-2.08l-.15-.15.15-1.4h2.3l.43-3.44 2.14-.99.19.19-.69 4.24h3.79l.18.25-.15 1.3h-4.06Z"></path><rect width="8.49" height="18.6" x="-4.25" y="-9.3" fill="none" rx="0" ry="0" transform="translate(415.66 95.67)"></rect></svg></svg>